<svg width="43" height="48" viewBox="0 0 43 48" fill="none" xmlns="http://www.w3.org/2000/svg">
<path d="M8.34538 34.7805C8.28354 35.1878 8.23716 35.5951 8.20624 35.9992C8.17532 36.4065 8.15986 36.8107 8.15986 37.218C8.15986 39.3756 8.58038 41.3343 9.41832 43.1002C10.2563 44.8661 11.4374 46.4983 12.9618 48H7.92796C6.7468 46.4362 5.87795 44.7262 5.31829 42.867C4.75863 41.0078 4.48035 39.1113 4.48035 37.1713C4.48035 36.391 4.52673 35.5919 4.61949 34.7805H0L0.980173 31.0777H5.36158C5.82847 29.4174 6.49635 27.7261 7.36521 26.0038C8.23407 24.2814 9.27608 22.6212 10.4882 21.0231C11.7002 19.4251 13.0453 17.9297 14.5202 16.5368C15.9951 15.144 17.5658 13.9221 19.2293 12.8713C21.9781 11.1365 23.8117 10.5675 24.3806 10.4059C24.965 10.238 25.4628 10.1292 25.8184 10.0639C23.6293 18.2996 21.4401 26.5354 19.2479 34.7743C15.6116 34.7743 11.9785 34.7774 8.34229 34.7805H8.34538ZM24.662 14.345C22.9212 15.1284 21.2515 16.0922 19.6498 17.2363C18.0482 18.3805 16.5733 19.6738 15.2221 21.1133C13.8708 22.5559 12.6742 24.1135 11.6322 25.7892C10.5902 27.465 9.7739 29.2278 9.18332 31.0777H20.2311L24.6589 14.345H24.662Z" fill="url(#paint0_linear_3_32)"/>
<path d="M18.2275 38.4833H22.0492C21.536 40.4202 21.0227 42.3571 20.5125 44.2972H30.3483L29.3681 48L14.0409 47.9751L15.0458 44.2972H16.6877C17.2009 42.3603 17.7142 40.4233 18.2244 38.4833H18.2275Z" fill="url(#paint1_linear_3_32)"/>
<path d="M18.2275 38.4833L20.2311 31.0777C18.614 30.3595 17.1917 29.4361 15.9641 28.3106C14.7366 27.1852 13.7039 25.9291 12.8628 24.5363C12.0249 23.1466 11.3941 21.6449 10.9736 20.0376C10.5531 18.4271 10.3428 16.7482 10.3428 14.9979C10.3428 12.2806 10.8097 9.64726 11.7404 7.10098C12.6804 4.5547 13.9234 2.18874 15.4756 0H20.1384C18.3357 2.09236 16.867 4.43656 15.7322 7.03258C14.5975 9.62549 14.0316 12.3303 14.0316 15.1409C14.0316 16.4218 14.1862 17.6716 14.4985 18.8903C14.8077 20.1091 15.2684 21.2501 15.8745 22.3134C16.4805 23.3766 17.2257 24.3467 18.1131 25.2203C19.0005 26.0939 20.0302 26.8307 21.2144 27.4215L28.4838 0H32.3055L22.0492 38.4833H18.2275Z" fill="url(#paint2_linear_3_32)"/>
<path d="M18.2275 38.4833L20.2311 31.0777C18.614 30.3595 17.1917 29.4361 15.9641 28.3106C14.7366 27.1852 13.7039 25.9291 12.8628 24.5363C12.0249 23.1466 11.3941 21.6449 10.9736 20.0376C10.5531 18.4271 10.3428 16.7482 10.3428 14.9979C10.3428 12.2806 10.8097 9.64726 11.7404 7.10098C12.6804 4.5547 13.9234 2.18874 15.4756 0H20.1384C18.3357 2.09236 16.867 4.43656 15.7322 7.03258C14.5975 9.62549 14.0316 12.3303 14.0316 15.1409C14.0316 16.4218 14.1862 17.6716 14.4985 18.8903C14.8077 20.1091 15.2684 21.2501 15.8745 22.3134C16.4805 23.3766 17.2257 24.3467 18.1131 25.2203C19.0005 26.0939 20.0302 26.8307 21.2144 27.4215L28.4838 0H32.3055L22.0492 38.4833H18.2275Z" fill="url(#paint3_linear_3_32)"/>
<path d="M31.2882 3.68418C31.6253 2.45301 31.9654 1.22495 32.3055 0C50.3197 1.52031 44.25 30.0766 23.9972 31.0777C26.3348 21.99 28.7651 12.8589 31.2851 3.68418H31.2882ZM24.9712 27.4215C25.3917 27.3531 25.9792 27.2474 26.678 27.0857C27.618 26.8712 28.7218 26.6162 30.036 26.069C30.5802 25.8421 31.4274 25.4846 32.4385 24.8192C33.7433 23.9611 34.5812 23.0782 34.9121 22.7113C35.6727 21.8688 36.118 21.1413 36.5756 20.4013C37.16 19.45 37.6609 18.4489 38.0845 17.3949C38.8606 15.4487 39.2502 13.5677 39.2502 11.7489C39.2502 10.6826 39.1018 9.6628 38.808 8.68968C38.5112 7.71656 38.0783 6.86158 37.5032 6.12475C36.9281 5.38791 36.2138 4.80031 35.3573 4.36194C34.5008 3.92357 33.499 3.70283 32.3519 3.70283H31.3717C29.2382 11.609 27.1047 19.5153 24.9712 27.4215Z" fill="url(#paint4_linear_3_32)"/>
<defs>
<linearGradient id="paint0_linear_3_32" x1="0" y1="0" x2="43" y2="48" gradientUnits="userSpaceOnUse">
<stop stop-color="#00E0FF"/>
<stop offset="1" stop-color="#FF00B8"/>
</linearGradient>
<linearGradient id="paint1_linear_3_32" x1="0" y1="0" x2="43" y2="48" gradientUnits="userSpaceOnUse">
<stop stop-color="#00E0FF"/>
<stop offset="1" stop-color="#FF00B8"/>
</linearGradient>
<linearGradient id="paint2_linear_3_32" x1="0" y1="0" x2="43" y2="48" gradientUnits="userSpaceOnUse">
<stop stop-color="#00E0FF"/>
<stop offset="1" stop-color="#FF00B8"/>
</linearGradient>
<linearGradient id="paint3_linear_3_32" x1="0" y1="0" x2="43" y2="48" gradientUnits="userSpaceOnUse">
<stop stop-color="#00E0FF"/>
<stop offset="1" stop-color="#FF00B8"/>
</linearGradient>
<linearGradient id="paint4_linear_3_32" x1="0" y1="0" x2="43" y2="48" gradientUnits="userSpaceOnUse">
<stop stop-color="#00E0FF"/>
<stop offset="1" stop-color="#FF00B8"/>
</linearGradient>
</defs>
</svg>
