<svg width="31" height="25" viewBox="0 0 31 25" fill="none" xmlns="http://www.w3.org/2000/svg">
<path d="M15.5194 13.8277L4.94242 24.4494C4.21137 25.1835 3.02923 25.1835 2.30595 24.4494L0.548294 22.6843C-0.182765 21.9502 -0.182765 20.763 0.548294 20.0367L8.04553 12.5078L0.548294 4.97891C-0.182765 4.24477 -0.182765 3.05764 0.548294 2.3313L2.29817 0.550609C3.02923 -0.183536 4.21136 -0.183536 4.93465 0.550609L15.5117 11.1723C16.2505 11.9064 16.2505 13.0936 15.5194 13.8277ZM30.4517 11.1723L19.8747 0.550609C19.1436 -0.183536 17.9615 -0.183536 17.2382 0.550609L15.4806 2.31568C14.7495 3.04983 14.7495 4.23696 15.4806 4.96329L22.9778 12.4922L15.4806 20.0211C14.7495 20.7552 14.7495 21.9424 15.4806 22.6687L17.2382 24.4338C17.9693 25.1679 19.1514 25.1679 19.8747 24.4338L30.4517 13.8121C31.1828 13.0936 31.1828 11.9064 30.4517 11.1723Z" fill="white"/>
</svg>
