<svg width="13" height="12" viewBox="0 0 13 12" fill="none" xmlns="http://www.w3.org/2000/svg">
<path d="M0.464286 2.08929H12.5357C12.7921 2.08929 13 1.88143 13 1.625V0.464286C13 0.207855 12.7921 0 12.5357 0H0.464286C0.207855 0 0 0.207855 0 0.464286V1.625C0 1.88143 0.207855 2.08929 0.464286 2.08929ZM0.464286 6.73214H12.5357C12.7921 6.73214 13 6.52429 13 6.26786V5.10714C13 4.85071 12.7921 4.64286 12.5357 4.64286H0.464286C0.207855 4.64286 0 4.85071 0 5.10714V6.26786C0 6.52429 0.207855 6.73214 0.464286 6.73214ZM0.464286 11.375H12.5357C12.7921 11.375 13 11.1671 13 10.9107V9.75C13 9.49357 12.7921 9.28571 12.5357 9.28571H0.464286C0.207855 9.28571 0 9.49357 0 9.75V10.9107C0 11.1671 0.207855 11.375 0.464286 11.375Z" fill="white"/>
</svg>
