<svg width="16" height="16" viewBox="0 0 16 16" fill="none" xmlns="http://www.w3.org/2000/svg">
<path d="M8.00179 3.70839C5.73162 3.70839 3.9005 5.45092 3.9005 7.61124C3.9005 9.77157 5.73162 11.5141 8.00179 11.5141C10.2719 11.5141 12.1031 9.77157 12.1031 7.61124C12.1031 5.45092 10.2719 3.70839 8.00179 3.70839ZM8.00179 10.1486C6.53475 10.1486 5.33542 9.0107 5.33542 7.61124C5.33542 6.21179 6.53118 5.07388 8.00179 5.07388C9.47239 5.07388 10.6682 6.21179 10.6682 7.61124C10.6682 9.0107 9.46882 10.1486 8.00179 10.1486ZM13.2274 3.54874C13.2274 4.05486 12.7991 4.45907 12.2708 4.45907C11.739 4.45907 11.3142 4.05146 11.3142 3.54874C11.3142 3.04603 11.7426 2.63842 12.2708 2.63842C12.7991 2.63842 13.2274 3.04603 13.2274 3.54874ZM15.9438 4.47266C15.8831 3.25323 15.5904 2.17306 14.6516 1.28312C13.7165 0.393172 12.5814 0.11464 11.2999 0.0534986C9.97925 -0.0178329 6.02075 -0.0178329 4.70006 0.0534986C3.4222 0.111243 2.28712 0.389776 1.34835 1.27972C0.409593 2.16967 0.120468 3.24983 0.0562186 4.46926C-0.0187395 5.72605 -0.0187395 9.49304 0.0562186 10.7498C0.116899 11.9693 0.409593 13.0494 1.34835 13.9394C2.28712 14.8293 3.41863 15.1078 4.70006 15.169C6.02075 15.2403 9.97925 15.2403 11.2999 15.169C12.5814 15.1112 13.7165 14.8327 14.6516 13.9394C15.5868 13.0494 15.8795 11.9693 15.9438 10.7498C16.0187 9.49304 16.0187 5.72945 15.9438 4.47266ZM14.2376 12.0983C13.9592 12.7641 13.4202 13.277 12.717 13.5453C11.664 13.9428 9.16542 13.8511 8.00179 13.8511C6.83815 13.8511 4.33597 13.9394 3.28656 13.5453C2.58695 13.2804 2.04796 12.7675 1.76598 12.0983C1.34835 11.0963 1.44473 8.71858 1.44473 7.61124C1.44473 6.50391 1.35192 4.12279 1.76598 3.12415C2.0444 2.45839 2.58338 1.94548 3.28656 1.67714C4.33954 1.27972 6.83815 1.37143 8.00179 1.37143C9.16542 1.37143 11.6676 1.28312 12.717 1.67714C13.4166 1.94209 13.9556 2.45499 14.2376 3.12415C14.6552 4.12619 14.5588 6.50391 14.5588 7.61124C14.5588 8.71858 14.6552 11.0997 14.2376 12.0983Z" fill="white"/>
</svg>
