<svg width="16" height="16" viewBox="0 0 16 16" fill="none" xmlns="http://www.w3.org/2000/svg">
<path d="M14.8571 0H1.13929C0.510714 0 0 0.492527 0 1.09715V14.1202C0 14.7249 0.510714 15.2174 1.13929 15.2174H14.8571C15.4857 15.2174 16 14.7249 16 14.1202V1.09715C16 0.492527 15.4857 0 14.8571 0ZM4.83571 13.0435H2.46429V5.78125H4.83929V13.0435H4.83571ZM3.65 4.7894C2.88929 4.7894 2.275 4.20177 2.275 3.48166C2.275 2.76155 2.88929 2.17391 3.65 2.17391C4.40714 2.17391 5.025 2.76155 5.025 3.48166C5.025 4.20516 4.41071 4.7894 3.65 4.7894ZM13.725 13.0435H11.3536V9.51087C11.3536 8.66848 11.3357 7.58492 10.1214 7.58492C8.88571 7.58492 8.69643 8.50204 8.69643 9.44973V13.0435H6.325V5.78125H8.6V6.7731H8.63214C8.95 6.20245 9.725 5.60122 10.8786 5.60122C13.2786 5.60122 13.725 7.10598 13.725 9.0625V13.0435Z" fill="white"/>
</svg>
